# xmcd CD database file
#
# Track frame offsets:
#	150
#	13633
#	27738
#	39665
#	54824
#	68063
#	82571
#	97261
#	117267
#	142735
#	161052
#	176501
#	197355
#	225753
#	245777
#	259344
#
# Disc length: 3634 seconds
#
# Revision: 1
# Processed by: cddbd v1.5.2PL0 Copyright (c) Steve Scherf et al.
# Submitted via: CDex 1.70beta2
#
DISCID=c80e3010
DTITLE=Prickly Pair - Pony Tracks
DYEAR=2005
DGENRE=Country
TTITLE0=Cindy, Cindy - Old Joe Clark - Red Haired Boy - Shady Grove
TTITLE1=All the Pretty Little Horses
TTITLE2=Round Up Time on the Pitchfork
TTITLE3=The Legend of Jack Bliss
TTITLE4=Pony Tracks
TTITLE5=Richmond
TTITLE6=Whiskey in the Jar
TTITLE7=Lakes of Ponchatrain
TTITLE8=The Strawberry Roan
TTITLE9=Where the Ponies Come to Drink
TTITLE10=Waitin' For a Train
TTITLE11=Pretty Painted Ladies
TTITLE12=Skewball - Stewball
TTITLE13=The Pearl of Them All
TTITLE14=The Zebra Dun
TTITLE15=The Reins of Glory
EXTD=YEAR: 2005
EXTT0=
EXTT1=
EXTT2=
EXTT3=
EXTT4=
EXTT5=
EXTT6=
EXTT7=
EXTT8=
EXTT9=
EXTT10=
EXTT11=
EXTT12=
EXTT13=
EXTT14=
EXTT15=
PLAYORDER=
